<svg xmlns="http://www.w3.org/2000/svg" width="75" height="75" viewBox="0 0 75 75">
    <g fill="none" fill-rule="evenodd">
        <path fill="#1BBC9C" d="M40.46 0h-5.92C4.934 0 0 7.122 0 15.909v43.182C0 67.878 4.934 75 34.54 75h5.92C70.066 75 75 67.878 75 59.091V15.909C75 7.122 70.066 0 40.46 0"/>
        <path fill="#393B42" d="M55 19.007A3.006 3.006 0 0 1 58 16c1.657 0 3 1.346 3 3.007v29.986A3.006 3.006 0 0 1 58 52c-1.657 0-3-1.346-3-3.007V19.007zM21 43h6v15.007A2.998 2.998 0 0 1 24 61c-1.657 0-3-1.353-3-2.993V43zm-7-13.004c0-.55.444-.996 1-.996h1v11h-1c-.552 0-1-.445-1-.996v-9.008z"/>
        <path fill="#F1F2EF" d="M16 29a3 3 0 0 1 3-3h12v17H19c-1.657 0-3-1.334-3-3V29z"/>
        <path fill="#FFFFFE" d="M16 32h15v5H16z"/>
        <path fill="#B95C57" d="M31 26l24-6.5v29.004L31 43z"/>
        <path fill="#D06560" d="M31 32l24-3v10.5L31 37z"/>
    </g>
</svg>
