<svg xmlns="http://www.w3.org/2000/svg" width="75" height="75" viewBox="0 0 75 75">
    <g fill="none" fill-rule="evenodd">
        <path fill="#FBB150" d="M40.46 0h-5.92C4.934 0 0 7.122 0 15.909v43.182C0 67.878 4.934 75 34.54 75h5.92C70.066 75 75 67.878 75 59.091V15.909C75 7.122 70.066 0 40.46 0"/>
        <path fill="#FFFFFE" d="M26 55h18v1H26z"/>
        <path fill="#8A8B87" d="M29 51l-1 4h14l-1-4z"/>
        <path fill="#152831" d="M12 19.993A2 2 0 0 1 14.006 18h41.988c1.108 0 2.006.9 2.006 1.993V47H12V19.993z"/>
        <path fill="#FFFFFE" d="M12 47h46v2c0 1.105-.898 2-2.006 2H14.006A1.998 1.998 0 0 1 12 49v-2z"/>
        <path fill="#698489" d="M14 20h42v25H14z"/>
        <path fill="#51BCC9" d="M60.478 45.477c0-.422.143-.844.143-1.407 0-.562 0-.985-.143-1.407l3-2.392c.285-.281.285-.562.143-.844l-2.857-4.924c-.143-.141-.428-.282-.857-.141l-3.57 1.407c-.714-.563-1.571-.985-2.428-1.407l-.572-3.658c.143-.423-.285-.704-.57-.704h-5.714c-.285 0-.714.281-.714.563l-.571 3.799c-.857.281-1.571.844-2.428 1.407l-3.428-1.407c-.428-.14-.714 0-1 .281l-2.856 4.925c-.143.14 0 .563.286.844l2.999 2.251c0 .422-.143.845-.143 1.407 0 .563 0 .985.143 1.407l-3 2.392c-.285.282-.285.563-.142.845l2.856 4.924c.143.14.429.282.857.14l3.57-1.406c.715.563 1.572.985 2.429 1.407l.571 3.658c0 .282.286.563.714.563h5.713c.286 0 .714-.281.714-.563l.571-3.658c.857-.422 1.714-.844 2.428-1.407l3.57 1.407c.286.14.715 0 .858-.282l2.856-4.924c.143-.282.143-.704-.143-.844l-3.285-2.252zM50 49.6c-2.714 0-5-2.347-5-5.133 0-2.787 2.286-5.134 5-5.134s5 2.347 5 5.134c0 2.786-2.286 5.133-5 5.133z"/>
    </g>
</svg>
