<svg xmlns="http://www.w3.org/2000/svg" xmlns:xlink="http://www.w3.org/1999/xlink" width="75" height="75" viewBox="0 0 75 75">
    <defs>
        <path id="a" d="M25.5 51C11.417 51 0 39.583 0 25.5S11.417 0 25.5 0 51 11.417 51 25.5 39.583 51 25.5 51zm0-15C31.299 36 36 31.299 36 25.5S31.299 15 25.5 15 15 19.701 15 25.5 19.701 36 25.5 36z"/>
    </defs>
    <g fill="none" fill-rule="evenodd">
        <path fill="#7BDEF8" d="M40.46 0h-5.92C4.934 0 0 7.122 0 15.909v43.182C0 67.878 4.934 75 34.54 75h5.92C70.066 75 75 67.878 75 59.091V15.909C75 7.122 70.066 0 40.46 0"/>
        <g transform="translate(12 12)">
            <mask id="b" fill="#fff">
                <use xlink:href="#a"/>
            </mask>
            <use fill="#BDC3C7" xlink:href="#a"/>
            <path fill="#B21E0F" d="M15 51.5L6.5 45-1 37l18-8 5 4.5-7 18zm21 0l-7-18 5-4.5 18 8-7.5 8-8.5 6.5zM15 0l7 18-5 4.5-18-8 7.5-8L15 0zm21 0l8.5 6.5 7.5 8-18 8-5-4.5 7-18z" mask="url(#b)"/>
            <path fill="#E9E9E9" d="M25.5 45C11.417 45 0 33.583 0 19.5S11.417-6 25.5-6 51 5.417 51 19.5 39.583 45 25.5 45zm0-14C31.299 31 36 26.299 36 20.5S31.299 10 25.5 10 15 14.701 15 20.5 19.701 31 25.5 31z" mask="url(#b)" style="mix-blend-mode:soft-light"/>
        </g>
    </g>
</svg>
