<svg xmlns="http://www.w3.org/2000/svg" width="200" height="50" viewBox="0 0 200 50">
    <g fill="none" fill-rule="evenodd">
        <path fill="#FEFEFE" d="M48.597 16.45V7.204C48.597 3.232 45.44 0 41.563 0H7.036C3.156 0 0 3.232 0 7.204v35.592C0 46.768 3.156 50 7.036 50h34.527c3.878 0 7.034-3.232 7.034-7.204V33.37h-1.655v9.425c0 3.086-2.413 5.596-5.38 5.596H7.037c-2.967 0-5.381-2.51-5.381-5.596V7.204c0-3.085 2.414-5.595 5.38-5.595h34.528c2.966 0 5.379 2.51 5.379 5.595v9.246h1.655z" opacity=".5"/>
        <path fill="#60C6F2" d="M9.23 7.63c-.936 0-1.756.87-1.756 1.81v3.692c0 1.229.726 1.954 1.756 1.954h3.605c.957 0 1.8-.845 1.8-1.954V9.44c0-.94-.843-1.81-1.755-1.81H9.23zm-4.188 5.502V9.44c0-2.34 1.919-4.318 4.188-4.318h3.65c2.268 0 4.186 1.979 4.186 4.318v3.692c0 2.582-2.081 4.486-4.186 4.486H9.23c-2.48 0-4.188-1.954-4.188-4.486z"/>
        <path fill="#FFF" d="M6.181 7.42c-.118.135.743.982 2.45 3.42 1.39 1.843 2.11 3.69 2.527 3.704.355.008 1.033-1.817 2.817-4.69 2.347-3.784 4.278-6.147 4.1-6.252-.22-.134-5.69 7.448-6.913 7.628-1.218.178-4.833-3.978-4.98-3.81"/>
        <path fill="#FEFEFE" d="M9.23 21.355c-.938 0-1.757.869-1.757 1.809v3.692c0 1.228.724 1.953 1.757 1.953h3.603c.958 0 1.799-.844 1.799-1.953v-3.692c0-.94-.841-1.81-1.752-1.81H9.23zm-4.188 5.5v-3.691c0-2.34 1.916-4.318 4.188-4.318h3.65c2.268 0 4.188 1.979 4.188 4.318v3.692c0 2.58-2.083 4.486-4.188 4.486H9.23c-2.484 0-4.188-1.953-4.188-4.486z"/>
        <path fill="#FFF" d="M6.138 21.144c-.118.134.745.982 2.45 3.42 1.393 1.841 2.111 3.692 2.529 3.703.353.01 1.033-1.816 2.815-4.689 2.349-3.785 4.28-6.148 4.105-6.253-.222-.134-5.697 7.448-6.915 7.628-1.221.18-4.834-3.978-4.984-3.809"/>
        <path fill="#85FF00" d="M9.23 35.078c-.936 0-1.754.868-1.754 1.808v3.691c0 1.231.724 1.954 1.754 1.954h3.605c.959 0 1.8-.844 1.8-1.954v-3.69c0-.94-.841-1.809-1.755-1.809H9.23zm-4.188 5.5v-3.692c0-2.339 1.917-4.318 4.188-4.318h3.65c2.272 0 4.189 1.98 4.189 4.318v3.691c0 2.582-2.081 4.487-4.19 4.487H9.23c-2.48 0-4.187-1.954-4.187-4.487z"/>
        <path fill="#FFF" d="M6.098 34.866c-.118.136.746.984 2.45 3.42 1.393 1.843 2.114 3.693 2.53 3.703.354.01 1.032-1.816 2.818-4.688 2.347-3.784 4.276-6.147 4.101-6.254-.224-.132-5.698 7.449-6.913 7.629-1.22.179-4.836-3.978-4.986-3.81"/>
        <path fill="#FEFEFE" d="M99.267 31.023c-1.508-.026-1.886-.527-2.102-.973-.215-.446-.17-1.34.554-2.061.47-.472 2.272-2.068 4.776-4.26 1.005-.881 2.371-2.09 2.371-2.09.17-.15.127-.272-.097-.272l-7.42-.01a.414.414 0 0 1-.406-.42l.002-1.551a.414.414 0 0 1 .407-.418s7.522.01 8.36.01c1.511 0 2.02.859 2.167 1.229.319.794.055 1.735-.7 2.516-.24.246-1.311 1.186-3.183 2.826-1.181 1.035-3.191 2.81-3.191 2.81-.172.15-.127.272.096.27l6.924-.012a.412.412 0 0 1 .406.418l.006 1.55a.415.415 0 0 1-.407.42l-8.563.018zM109.524 15.736c0-.163.137-.302.293-.302h2.079c.158 0 .293.14.293.302v2.001a.303.303 0 0 1-.293.302h-2.101c-.156 0-.27-.14-.27-.302v-2h-.001zM109.816 21.39a.305.305 0 0 1-.296-.303v-1.861c0-.163.138-.3.296-.302 2.34-.038 3.67 1.628 3.67 3.885v7.888a.304.304 0 0 1-.296.301h-1.782c-.157 0-.27-.139-.27-.301v-7.888c0-.605-.478-1.419-1.323-1.419M114.874 19.273c0-.163.135-.303.293-.303h1.806c.157 0 .27.14.27.303v7.538c0 .956.813 1.768 1.671 1.768h6.026c.157 0 .294.14.294.302v1.816a.304.304 0 0 1-.294.302h-6.026c-2.19 0-4.018-1.954-4.018-4.188l-.022-7.538zM126.024 19.273c0-.163.137-.303.295-.303h1.807c.159 0 .27.14.27.303v7.538c0 .956.81 1.768 1.67 1.768h6.026c.156 0 .293.14.293.302v1.816a.304.304 0 0 1-.293.302h-6.026c-2.188 0-4.017-1.954-4.017-4.188l-.025-7.538zM141.23 21.367c-.903 0-1.694.814-1.694 1.744v3.584c0 1.187.7 1.885 1.693 1.885h3.478c.878 0 1.692-.793 1.692-1.862V23.11c0-.93-.79-1.744-1.692-1.744h-3.478zm3.477 9.63h-3.478c-2.369 0-4.04-1.86-4.04-4.302V23.11c0-2.28 1.83-4.165 4.04-4.165h3.478c2.21 0 4.038 1.886 4.038 4.165v7.586a.302.302 0 0 1-.293.3h-1.783c-.16 0-.27-.137-.27-.3v-.116a3.814 3.814 0 0 1-1.692.417zM150.506 28.719c0-.162.135-.302.292-.302h1.716c.16 0 .292.14.292.302v1.978a.301.301 0 0 1-.292.302h-1.716c-.157 0-.268-.14-.268-.302v-1.978h-.024z"/>
        <g fill="#9CE6FF">
            <path d="M37.503 29.742a3.978 3.978 0 0 1-2.888 1.256h-.882c-2.189 0-4.084-1.907-4.084-4.164v-7.608c0-.164.134-.302.293-.302h1.784c.157 0 .27.138.27.302v7.608c0 .907.813 1.745 1.737 1.745h.882c.945 0 1.692-.792 1.692-1.606v-7.747c0-.164.135-.302.293-.302h1.83c.156 0 .271.138.271.302v7.608c0 .907.811 1.745 1.712 1.745h3.611c.93 0 1.74-.86 1.74-1.745v-7.608c0-.164.136-.302.293-.302h1.761c.158 0 .293.138.293.302v7.608c0 2.257-1.874 4.187-4.087 4.187h-3.61c-1.15 0-2.167-.51-2.91-1.279M192.146 20.204a3.983 3.983 0 0 1 2.89-1.256h.879c2.189 0 4.085 1.907 4.085 4.164v7.608a.303.303 0 0 1-.293.302h-1.784c-.157 0-.27-.14-.27-.302v-7.608c0-.907-.815-1.746-1.738-1.746h-.88c-.95 0-1.693.792-1.693 1.606v7.748a.303.303 0 0 1-.293.302h-1.828c-.16 0-.272-.14-.272-.302v-7.608c0-.907-.812-1.746-1.713-1.746h-3.613c-.927 0-1.738.86-1.738 1.746v7.608a.304.304 0 0 1-.295.302h-1.76a.303.303 0 0 1-.292-.302v-7.608c0-2.257 1.874-4.188 4.085-4.188h3.613c1.149 0 2.165.512 2.91 1.28M53.565 21.367c-.903 0-1.694.837-1.694 1.744v3.56c0 1.188.7 1.886 1.694 1.886h3.475c.926 0 1.737-.815 1.737-1.885V23.11c0-.907-.811-1.744-1.692-1.744h-3.52zm-4.041 5.305V23.11c0-2.256 1.852-4.165 4.04-4.165h3.52c2.19 0 4.042 1.909 4.042 4.165v3.56c0 2.489-2.01 4.327-4.041 4.327h-3.52c-2.392 0-4.041-1.883-4.041-4.326zM172.47 21.367c-.904 0-1.693.837-1.693 1.744v3.56c0 1.188.7 1.886 1.692 1.886h3.475c.926 0 1.738-.815 1.738-1.885V23.11c0-.907-.812-1.744-1.692-1.744h-3.52zm-4.042 5.305V23.11c0-2.256 1.852-4.165 4.041-4.165h3.521c2.19 0 4.04 1.909 4.04 4.165v3.56c0 2.489-2.009 4.327-4.04 4.327h-3.52c-2.393 0-4.042-1.883-4.042-4.326zM66.53 21.367c-.971 0-1.671.744-1.671 1.744v7.586a.3.3 0 0 1-.293.3h-1.784a.302.302 0 0 1-.292-.3V23.11c0-2.35 1.76-4.165 4.04-4.165h3.498c2.325 0 4.018 1.886 4.018 4.91a.304.304 0 0 1-.293.302H71.97c-.158 0-.271-.14-.271-.301 0-1.838-.79-2.49-1.671-2.49H66.53zM83.003 27.928h-5.304l.022 2.792c0 .14-.157.278-.294.278h-1.782a.288.288 0 0 1-.293-.3V19.271c0-.163.135-.303.293-.303h1.76c.159 0 .27.14.27.303v6.212l3.289.023c.925.024 1.67-.814 1.67-1.72v-4.515c0-.163.136-.303.294-.303h1.784c.158 0 .293.14.293.303v4.491c0 .582-.133 1.472-.486 1.994l-1.29-.273c2.054 0 3.725 1.815 3.725 4.19v1.023a.303.303 0 0 1-.294.301h-1.761c-.16 0-.27-.139-.27-.3v-1.025c0-1-.61-1.745-1.626-1.745M164.544 27.094c-.182.855-.893 1.463-1.691 1.463h-3.475c-.993 0-1.694-.698-1.694-1.885V23.11c0-.906.79-1.744 1.694-1.744h3.52c.857 0 1.646.797 1.686 1.677 0 .15.112.272.276.272h1.764c.248 0 .303-.184.31-.272-.035-2.227-1.867-4.098-4.036-4.098h-3.52c-2.19 0-4.041 1.909-4.041 4.165v3.56c0 2.444 1.649 4.327 4.04 4.327h3.52c1.915 0 3.809-1.633 4.02-3.904 0 0-.012-.268-.271-.268h-1.766c-.245 0-.336.268-.336.268M95.045 25.588a.33.33 0 0 1-.325.335h-6.08a.332.332 0 0 1-.327-.335v-1.745c0-.185.147-.335.327-.335h6.08c.18 0 .325.15.325.335v1.745z"/>
        </g>
    </g>
</svg>
