<svg xmlns="http://www.w3.org/2000/svg" width="20" height="12" viewBox="0 0 20 12">
    <g fill="none" fill-rule="evenodd">
        <path fill="#CB001C" d="M0 12h20v-1H0z"/>
        <path fill="#FFF" d="M0 11h20v-1H0z"/>
        <path fill="#CB001C" d="M0 10.037h20v-1H0z"/>
        <path fill="#FFF" d="M0 9.037h20v-.904H0z"/>
        <path fill="#CB001C" d="M0 8.133h20V7.23H0z"/>
        <path fill="#FFF" d="M0 7.23h20v-.904H0z"/>
        <path fill="#CB001C" d="M0 6.326h20v-.904H0z"/>
        <path fill="#FFF" d="M0 5.422h20v-.903H0z"/>
        <path fill="#CB001C" d="M0 4.52h20v-.905H0z"/>
        <path fill="#FFF" d="M0 3.615h20v-.904H0z"/>
        <path fill="#CB001C" d="M0 2.71h20v-.903H0z"/>
        <path fill="#FFF" d="M0 1.808h20V.904H0z"/>
        <path fill="#CB001C" d="M0 .904h20V0H0z"/>
        <path fill="#2A3560" d="M0 6.326h9.016V0H0z"/>
        <path fill="#FFF" d="M.737.937H.493l.2.148-.078.239.2-.148.2.148-.076-.24.2-.147H.892L.815.697zM.737 1.992H.493l.2.147-.078.24.2-.147.2.147-.076-.24.2-.147H.892l-.077-.238zM.737 3.048H.493l.2.148-.078.239.2-.148.2.148-.076-.239.2-.148H.892l-.077-.239zM.737 4.104H.493l.2.148-.078.239.2-.147.2.147-.076-.239.2-.148H.892l-.077-.24zM.737 5.161H.493l.2.146-.078.24.2-.148.2.148-.076-.24.2-.146H.892l-.077-.24zM1.536 1.253l.074.24h.248l-.199.148.075.239-.198-.147-.199.147.075-.24-.199-.147h.247zM1.536 2.31l.074.239h.248l-.199.148.075.238-.198-.146-.199.146.075-.238-.199-.148h.247zM1.536 3.366l.074.238h.248l-.199.149.075.238-.198-.147-.199.147.075-.238-.199-.149h.247zM1.536 4.422l.074.239h.248l-.199.147.075.239-.198-.149-.199.149.075-.239-.199-.147h.247zM2.265.697l.077.24h.247l-.2.147.077.24-.201-.148-.198.148.076-.24-.2-.147h.246zM2.265 1.754l.077.238h.247l-.2.148.077.24-.201-.149-.198.149.076-.24-.2-.148h.246zM2.265 2.81l.077.238h.247l-.2.148.077.24-.201-.149-.198.148.076-.239-.2-.148h.246zM2.265 3.865l.077.24h.247l-.2.147.077.239-.201-.147-.198.147.076-.239-.2-.148h.246zM2.265 4.92l.077.24h.247l-.2.148.077.239-.201-.148-.198.148.076-.24-.2-.146h.246zM2.986 1.253l.076.24h.248l-.201.148.077.239-.2-.147-.199.147.077-.24-.2-.147h.246zM2.986 2.31l.076.239h.248l-.201.148.077.238-.2-.146-.199.146.077-.238-.2-.148h.246zM2.986 3.366l.076.238h.248l-.201.149.077.238-.2-.147-.199.147.077-.238-.2-.149h.246zM2.986 4.422l.076.239h.248l-.201.147.077.239-.2-.149-.199.149.077-.239-.2-.147h.246zM3.717.697l.077.24h.244l-.2.147.08.24-.201-.148-.2.148.076-.24-.198-.147h.246zM3.717 1.754l.077.238h.244l-.2.148.08.24-.201-.149-.2.149.076-.24-.198-.148h.246zM3.717 2.81l.077.238h.244l-.2.148.08.24-.201-.149-.2.148.076-.239-.198-.148h.246zM3.717 3.865l.077.24h.244l-.2.147.08.239-.201-.147-.2.147.076-.239-.198-.148h.246zM3.717 4.92l.077.24h.244l-.2.148.08.239-.201-.148-.2.148.076-.24-.198-.146h.246zM4.438 1.253l.076.24h.246l-.199.148.075.239-.198-.147-.199.147.075-.24-.199-.147h.246zM4.438 2.31l.076.239h.246l-.199.148.075.238-.198-.146-.199.146.075-.238-.199-.148h.246zM4.438 3.366l.076.238h.246l-.199.149.075.238-.198-.147-.199.147.075-.238-.199-.149h.246zM4.438 4.422l.076.239h.246l-.199.147.075.239-.198-.149-.199.149.075-.239-.199-.147h.246zM5.167.697l.077.24h.246l-.2.147.078.24-.201-.148-.198.148.075-.24-.2-.147h.247zM5.167 1.754l.077.238h.246l-.2.148.078.24-.201-.149-.198.149.075-.24-.2-.148h.247zM5.167 2.81l.077.238h.246l-.2.148.078.24-.201-.149-.198.148.075-.239-.2-.148h.247zM5.167 3.865l.077.24h.246l-.2.147.078.239-.201-.147-.198.147.075-.239-.2-.148h.247zM5.167 4.92l.077.24h.246l-.2.148.078.239-.201-.148-.198.148.075-.24-.2-.146h.247zM5.888 1.253l.076.24h.248l-.2.148.076.239-.2-.147-.199.147.077-.24-.2-.147h.247zM5.888 2.31l.076.239h.248l-.2.148.076.238-.2-.146-.199.146.077-.238-.2-.148h.247zM5.888 3.366l.076.238h.248l-.2.149.076.238-.2-.147-.199.147.077-.238-.2-.149h.247zM5.888 4.422l.076.239h.248l-.2.147.076.239-.2-.149-.199.149.077-.239-.2-.147h.247zM6.619.697l.077.24h.246l-.2.147.076.24-.2-.148-.197.148.075-.24-.199-.147h.246zM6.619 1.754l.077.238h.246l-.2.148.076.24-.2-.149-.197.149.075-.24-.199-.148h.246zM6.619 2.81l.077.238h.246l-.2.148.076.24-.2-.149-.197.148.075-.239-.199-.148h.246zM6.619 3.865l.077.24h.246l-.2.147.076.239-.2-.147-.197.147.075-.239-.199-.148h.246zM6.619 4.92l.077.24h.246l-.2.148.076.239-.2-.148-.197.148.075-.24-.199-.146h.246zM7.34 1.253l.075.24h.247l-.198.148.074.239-.198-.147-.2.147.076-.24-.197-.147h.244zM7.34 2.31l.075.239h.247l-.198.148.074.238-.198-.146-.2.146.076-.238-.197-.148h.244zM7.34 3.366l.075.238h.247l-.198.149.074.238-.198-.147-.2.147.076-.238-.197-.149h.244zM7.34 4.422l.075.239h.247l-.198.147.074.239-.198-.149-.2.149.076-.239-.197-.147h.244zM8.069.697l.078.24h.245l-.2.147.078.24-.201-.148-.198.148.075-.24-.2-.147h.247zM8.069 1.754l.078.238h.245l-.2.148.078.24-.201-.149-.198.149.075-.24-.2-.148h.247zM8.069 2.81l.078.238h.245l-.2.148.078.24-.201-.149-.198.148.075-.239-.2-.148h.247zM8.069 3.865l.078.24h.245l-.2.147.078.239-.201-.147-.198.147.075-.239-.2-.148h.247zM8.069 4.92l.078.24h.245l-.2.148.078.239-.201-.148-.198.148.075-.24-.2-.146h.247z"/>
    </g>
</svg>
